<svg version="1.1" id="Layer_1" xmlns="http://www.w3.org/2000/svg" xmlns:xlink="http://www.w3.org/1999/xlink" x="0px" y="0px"
	 width="100%" viewBox="0 0 186 222" enable-background="new 0 0 186 222" xml:space="preserve">
<path fill="#18171E" opacity="1.000000" stroke="none" 
	d="
M94.000000,223.000000 
	C62.685570,223.000000 31.871138,223.000000 1.028353,223.000000 
	C1.028353,149.064270 1.028353,75.128540 1.028353,1.096400 
	C62.897591,1.096400 124.795387,1.096400 186.846588,1.096400 
	C186.846588,74.999748 186.846588,148.999847 186.846588,223.000000 
	C156.128815,223.000000 125.314407,223.000000 94.000000,223.000000 
M38.126686,55.715725 
	C32.403107,66.097000 29.116322,77.162399 29.056942,89.062454 
	C28.963045,107.879555 28.974785,126.697205 28.954842,145.514633 
	C28.943016,156.672302 28.814009,167.833557 29.091566,178.984375 
	C29.140471,180.949036 30.479809,183.731567 32.055450,184.567245 
	C33.605976,185.389572 36.449802,184.702316 38.302612,183.803940 
	C40.956039,182.517349 43.257240,180.480621 45.649998,178.685730 
	C49.247696,175.986954 52.303677,176.495712 55.221523,179.858261 
	C59.254791,184.506241 63.355976,189.103241 67.601700,193.556534 
	C71.323410,197.460190 74.046364,197.461624 77.735962,193.553116 
	C81.615509,189.443405 85.258446,185.110306 89.004379,180.874466 
	C92.649910,176.752151 95.729042,176.556091 99.460968,180.538757 
	C103.326210,184.663696 106.952789,189.011459 110.719376,193.229935 
	C114.490562,197.453598 117.701027,197.428970 121.504044,193.178879 
	C124.832214,189.459457 128.118057,185.702103 131.454926,181.990570 
	C137.451019,175.321228 138.454300,175.241821 145.834122,180.710648 
	C147.035294,181.600784 148.111679,182.860840 149.458817,183.307907 
	C151.805969,184.086868 154.862961,185.436050 156.607162,184.549301 
	C158.300095,183.688614 159.553528,180.322830 159.567551,178.048355 
	C159.755478,147.574020 159.941483,117.095604 159.631317,86.623260 
	C159.190781,43.342083 117.614532,12.723534 76.151428,24.986933 
	C59.599152,29.882540 47.364094,40.447750 38.126686,55.715725 
z"/>
<path fill="#7559E0" opacity="1.000000" stroke="none" 
	d="
M38.292889,55.387314 
	C47.364094,40.447750 59.599152,29.882540 76.151428,24.986933 
	C117.614532,12.723534 159.190781,43.342083 159.631317,86.623260 
	C159.941483,117.095604 159.755478,147.574020 159.567551,178.048355 
	C159.553528,180.322830 158.300095,183.688614 156.607162,184.549301 
	C154.862961,185.436050 151.805969,184.086868 149.458817,183.307907 
	C148.111679,182.860840 147.035294,181.600784 145.834122,180.710648 
	C138.454300,175.241821 137.451019,175.321228 131.454926,181.990570 
	C128.118057,185.702103 124.832214,189.459457 121.504044,193.178879 
	C117.701027,197.428970 114.490562,197.453598 110.719376,193.229935 
	C106.952789,189.011459 103.326210,184.663696 99.460968,180.538757 
	C95.729042,176.556091 92.649910,176.752151 89.004379,180.874466 
	C85.258446,185.110306 81.615509,189.443405 77.735962,193.553116 
	C74.046364,197.461624 71.323410,197.460190 67.601700,193.556534 
	C63.355976,189.103241 59.254791,184.506241 55.221523,179.858261 
	C52.303677,176.495712 49.247696,175.986954 45.649998,178.685730 
	C43.257240,180.480621 40.956039,182.517349 38.302612,183.803940 
	C36.449802,184.702316 33.605976,185.389572 32.055450,184.567245 
	C30.479809,183.731567 29.140471,180.949036 29.091566,178.984375 
	C28.814009,167.833557 28.943016,156.672302 28.954842,145.514633 
	C28.974785,126.697205 28.963045,107.879555 29.056942,89.062454 
	C29.116322,77.162399 32.403107,66.097000 38.292889,55.387314 
M119.672668,77.353683 
	C112.551147,76.273659 108.265594,78.269165 106.164185,83.643723 
	C104.421936,88.099686 105.908257,93.451340 109.628784,96.118408 
	C114.727211,99.773193 121.428986,98.662918 124.986519,93.574097 
	C128.797958,88.122078 127.046349,82.010933 119.672668,77.353683 
M83.260468,86.680573 
	C81.309113,78.305336 73.913483,74.324043 67.411751,78.148720 
	C62.728188,80.903854 60.674026,86.380394 62.421886,91.452057 
	C63.877548,95.675873 68.681091,98.572670 73.511757,98.139847 
	C79.172394,97.632675 82.293587,94.234184 83.260468,86.680573 
z"/>
<path fill="#1B1924" opacity="1.000000" stroke="none" 
	d="
M120.045959,77.496605 
	C127.046349,82.010933 128.797958,88.122078 124.986519,93.574097 
	C121.428986,98.662918 114.727211,99.773193 109.628784,96.118408 
	C105.908257,93.451340 104.421936,88.099686 106.164185,83.643723 
	C108.265594,78.269165 112.551147,76.273659 120.045959,77.496605 
z"/>
<path fill="#1B1923" opacity="1.000000" stroke="none" 
	d="
M83.265594,87.097229 
	C82.293587,94.234184 79.172394,97.632675 73.511757,98.139847 
	C68.681091,98.572670 63.877548,95.675873 62.421886,91.452057 
	C60.674026,86.380394 62.728188,80.903854 67.411751,78.148720 
	C73.913483,74.324043 81.309113,78.305336 83.265594,87.097229 
z"/>
</svg>